<?xml version="1.0" encoding="utf-8"?>
<!-- Generator: Adobe Illustrator 17.0.0, SVG Export Plug-In . SVG Version: 6.00 Build 0)  -->
<!DOCTYPE svg PUBLIC "-//W3C//DTD SVG 1.1//EN" "http://www.w3.org/Graphics/SVG/1.1/DTD/svg11.dtd">
<svg version="1.1" id="Layer_1" xmlns="http://www.w3.org/2000/svg" xmlns:xlink="http://www.w3.org/1999/xlink" x="0px" y="0px"
	 width="836px" height="670px" viewBox="0 0 836 670" enable-background="new 0 0 836 670" xml:space="preserve">
<g>
	<g>
		<path fill="#42B4D6" d="M554.542,179.105l-0.527-0.119l-0.244-0.136c-58.526-33.576-124.696-69.149-135.974-71.627
			c-11.277,2.478-77.463,38.051-135.989,71.627l-0.306,0.136l-0.384,0.119c-0.216,0.109-22.063,11.031-22.063,31.753v77.569
			c27.792,15.288,52.457,29.396,55.161,30.944c4.101,2.147,33.28,18.563,33.28,50.755v47.237
			c34.837,19.565,63.151,34.456,70.335,36.231c7.184-1.775,35.498-16.665,70.335-36.23v-47.238
			c0-32.193,29.186-48.606,33.287-50.753c2.71-1.552,27.368-15.656,55.153-30.941v-77.574
			C576.605,190.361,554.727,179.2,554.542,179.105z"/>
	</g>
	<g>
		<path fill="#007194" d="M347.495,406.968v20.512c32.427,18.215,64.172,35.116,70.335,35.116c6.164,0,37.909-16.899,70.335-35.113
			v-20.316c-47.367,26.824-64.443,34.681-70.194,36.97C412.204,441.842,395.12,433.948,347.495,406.968z"/>
		<path fill="#007194" d="M558.223,171.121c0,0-127.023-72.875-140.393-72.875c-13.366,0-140.389,72.873-140.389,72.873
			s-26.743,13.245-26.743,39.74c0,17.278,0,45.367,0,72.989c5.674,3.097,11.294,6.191,16.713,9.192v-82.181
			c0-14.36,16.213-23.127,17.446-23.797l0.568-0.133l0.748-0.351c0.292-0.166,29.771-17.029,61.282-34.264
			c48.04-26.27,64.859-33.644,70.375-35.706c5.517,2.062,22.267,9.434,70.307,35.709c31.511,17.236,60.92,34.098,61.214,34.264
			l0.324,0.212l1.12,0.267c1.166,0.628,17.454,9.404,17.454,23.799v82.187c5.419-3.001,11.039-6.095,16.713-9.192
			c0-27.624,0-55.714,0-72.992C584.962,184.363,558.223,171.121,558.223,171.121z"/>
	</g>
	<g>
		<path fill="#FFFFFF" d="M518.109,251.347c0,2.282-1.851,4.132-4.133,4.132H321.684c-2.283,0-4.133-1.85-4.133-4.132v-30.733
			c0-2.282,1.851-4.132,4.133-4.132h192.292c2.283,0,4.133,1.85,4.133,4.132V251.347z"/>
	</g>
	<g>
		<path fill="#FFFFFF" d="M518.109,309.841c0,2.284-1.851,4.135-4.133,4.135H321.684c-2.283,0-4.133-1.851-4.133-4.135v-30.728
			c0-2.284,1.851-4.135,4.133-4.135h192.292c2.283,0,4.133,1.851,4.133,4.135V309.841z"/>
	</g>
	<g>
		<path fill="#007194" d="M456.022,339.046c2.292,0,3.591,1.163,3.591,3.446v31.849c0,2.282-1.299,3.703-3.591,3.703h-76.386
			c-2.292,0-3.589-1.421-3.589-3.703v-31.849c0-2.282,1.298-3.446,3.589-3.446H456.022z"/>
	</g>
	<g>
		<circle fill="#42B4D6" cx="338.721" cy="294.906" r="7.799"/>
	</g>
	<g>
		<circle fill="#42B4D6" cx="361.005" cy="294.906" r="7.799"/>
	</g>
	<g>
		<circle fill="#42B4D6" cx="383.29" cy="294.906" r="7.799"/>
	</g>
	<g>
		<circle fill="#42B4D6" cx="405.574" cy="294.906" r="7.799"/>
	</g>
	<g>
		<circle fill="#42B4D6" cx="427.858" cy="294.906" r="7.799"/>
	</g>
	<g>
		<path fill="#76D691" d="M667.832,612.862c-11.852-2.932-80.869-41.552-142.208-78.011c-1.461-1.028-15.871-11.566-15.871-25.608
			V370.126c0-20.723,21.5-31.645,21.717-31.753l0.21-0.12l0.219-0.136c58.523-33.573,124.666-69.149,135.944-71.624
			c11.278,2.476,77.425,38.051,135.951,71.624l0.235,0.136l0.869,0.12c0.185,0.095,22.406,11.256,22.406,31.753v139.116
			c0,13.996-15.002,24.509-16.572,25.614C749.393,571.313,679.687,609.93,667.832,612.862z"/>
	</g>
	<g>
		<path fill="#308A4F" d="M667.832,275.872c5.517,2.065,22.268,9.437,70.31,35.711c31.511,17.235,60.92,34.098,61.211,34.264
			l0.324,0.209l0.075,0.269c1.167,0.628,16.41,9.401,16.41,23.797V509.24c0,7.905-7.991,15.682-11.383,18.12
			c-4.246,2.519-32.826,19.588-63.532,37.033c-50.121,28.476-67.639,36.664-73.534,39.008c-5.895-2.342-23.464-10.527-73.552-38.984
			c-30.709-17.445-59.751-34.539-63.997-37.058c-3.395-2.437-12.054-10.215-12.054-18.12V370.123
			c0-14.355,15.863-23.122,17.098-23.791l0.397-0.136l0.662-0.348c0.294-0.169,29.685-17.007,61.191-34.24
			C645.532,285.314,662.315,277.94,667.832,275.872 M667.832,257.513c-13.365,0-140.038,72.873-140.038,72.873
			s-26.397,13.242-26.397,39.74c0,33.124,0,105.995,0,139.116c0,19.874,19.711,33.124,19.711,33.124s133.534,79.494,146.899,79.494
			c13.37,0,147.339-79.491,147.339-79.491s20.315-13.253,20.315-33.127c0-33.122,0-105.992,0-139.113
			c0-26.498-27.085-39.743-27.085-39.743S681.202,257.513,667.832,257.513L667.832,257.513z"/>
	</g>
	<g>
		<rect x="610.032" y="369.686" fill="#FFFFFF" width="111.421" height="136.491"/>
	</g>
	<g>
		<path fill="#308A4F" d="M713.812,336.26h-90.946c-10.106,0-18.405,8.619-18.405,16.976v173.473c0,8.359,8.365,15.68,16.721,15.68
			h92.63c8.357,0,13.212-7.321,13.212-15.68V353.236C727.024,344.879,723.92,336.26,713.812,336.26z M667.832,533.512
			c-5.536,0-10.024-4.486-10.024-10.021c0-5.536,4.488-10.024,10.024-10.024s10.024,4.488,10.024,10.024
			C677.856,529.027,673.367,533.512,667.832,533.512z M716.268,503.392H615.603l-0.075-130.92h100.74V503.392z"/>
	</g>
	<g>
		<path fill="#76D691" d="M623.96,384.211c0,0,0,10.791,0,15.598c0,4.807,3.762,3.303,3.762,3.303s10.791,0,15.598,0
			c4.804,0,5.71-3.303,5.71-3.303s0-10.794,0-15.598c0-4.807-5.228-3.383-5.228-3.383s-11.273,0-16.079,0
			C622.912,380.829,623.96,384.211,623.96,384.211z"/>
	</g>
	<g>
		<path fill="#FF7954" d="M167.828,612.859c-11.855-2.932-81.568-41.552-142.904-78.014c-1.464-1.023-16.568-11.561-16.568-25.603
			V370.126c0-20.725,22.193-31.647,22.411-31.756l0.558-0.12l0.391-0.136c58.529-33.576,124.758-69.146,136.034-71.627
			c11.278,2.481,77.471,38.051,135.997,71.627l0.256,0.136l0.182,0.12c0.185,0.095,21.721,11.256,21.721,31.756V509.24
			c0,13.996-14.31,24.509-15.877,25.614C248.692,571.313,179.681,609.93,167.828,612.859z"/>
	</g>
	<path fill="#C44A37" d="M77.995,414.255v108.636h178.274V414.255H77.995z M97.494,461.609h8.357v11.142h-8.357V461.609z
		 M119.778,508.963c0,0-7.66,0-14.347,0c-8.914,0-7.938-9.99-7.938-9.99v-15.08h8.357v13.928h13.928V508.963z M119.778,433.754
		H105.85v16.713h-8.357v-16.118c0,0-0.977-8.952,7.938-8.952c6.686,0,14.347,0,14.347,0V433.754z M158.775,508.963h-19.499v-11.142
		h19.499V508.963z M158.775,433.754h-19.499v-8.357h19.499V433.754z M197.773,508.963h-22.284v-11.142h22.284V508.963z
		 M197.773,433.754h-22.284v-8.357h22.284V433.754z M236.77,498.974c0,0,0.139,9.99-8.776,9.99c-6.684,0-16.294,0-16.294,0v-11.142
		h16.713v-13.928h8.357L236.77,498.974L236.77,498.974z M236.77,472.751h-8.357v-11.142h8.357V472.751z M236.77,450.467h-8.357
		v-16.713H211.7v-8.357c0,0,9.611,0,16.294,0c8.914,0,8.776,8.952,8.776,8.952L236.77,450.467L236.77,450.467z"/>
	<g>
		<path fill="#C44A37" d="M167.828,275.872c5.517,2.062,22.268,9.434,70.307,35.709c31.511,17.236,60.923,34.098,61.214,34.264
			l0.324,0.212l0.773,0.267c1.167,0.628,17.105,9.404,17.105,23.799V509.24c0,7.902-8.688,15.682-12.083,18.12
			c-4.249,2.522-33.213,19.61-63.919,37.058c-50.091,28.456-67.773,36.639-73.668,38.984c-5.892-2.345-23.551-10.527-73.639-38.984
			C63.533,546.967,35.144,529.876,30.9,527.36c-3.398-2.437-11.401-10.215-11.401-18.117V370.126
			c0-14.36,15.169-23.13,16.402-23.797l0.044-0.133l0.487-0.351c0.294-0.166,29.641-17.029,61.152-34.264
			C145.624,285.309,162.312,277.934,167.828,275.872 M167.828,257.511c-13.367,0-140.737,72.873-140.737,72.873S0,343.628,0,370.126
			c0,33.124,0,105.995,0,139.113c0,19.877,20.405,33.124,20.405,33.124s133.883,79.497,147.25,79.497
			c13.37,0,146.814-79.494,146.814-79.494s19.795-13.25,19.795-33.124c0-33.122,0-105.992,0-139.116
			c0-26.498-26.392-39.743-26.392-39.743S181.198,257.511,167.828,257.511L167.828,257.511z"/>
	</g>
	<g>
		<path fill="#FFFFFF" d="M254.098,344.617H84.902c0,0-15.263-0.197-15.263,13.173v163.182c0,13.996,15.198,13.061,15.198,13.061
			h170.445c0,0,12.13,0.951,12.13-13.044V357.79C267.411,357.79,267.188,344.617,254.098,344.617z M203.344,361.33
			c61.282,0,52.715,0,52.715,0v16.713h-52.715V361.33z M80.78,361.33h111.421v16.713H80.78V361.33z M256.059,520.105H80.78V386.4
			h175.278v133.705H256.059z"/>
	</g>
	<g>
		<rect x="97.494" y="397.542" fill="#C44A37" width="41.783" height="8.357"/>
	</g>
	<g>
		<rect x="220.057" y="397.542" fill="#C44A37" width="16.713" height="8.357"/>
	</g>
	<g>
		<rect x="197.773" y="397.542" fill="#C44A37" width="13.928" height="8.357"/>
	</g>
	<g>
		<path fill="#FFFFFF" d="M156.314,486.719c-1.091,0-2.184-0.375-3.077-1.142l-17.809-15.34c-1.045-0.895-1.643-2.201-1.643-3.574
			c0-1.374,0.599-2.679,1.643-3.577l17.809-15.337c1.972-1.703,4.954-1.477,6.657,0.495c1.7,1.975,1.477,4.956-0.498,6.659
			l-13.659,11.759l13.659,11.76c1.975,1.703,2.198,4.682,0.498,6.657C158.958,486.164,157.641,486.719,156.314,486.719z"/>
	</g>
	<g>
		<path fill="#FFFFFF" d="M179.343,486.719c-1.328,0-2.644-0.555-3.58-1.64c-1.7-1.975-1.477-4.954,0.498-6.657l13.659-11.76
			L176.261,454.9c-1.975-1.7-2.201-4.682-0.498-6.657c1.7-1.975,4.679-2.198,6.657-0.495l17.809,15.337
			c1.042,0.897,1.64,2.203,1.64,3.577s-0.598,2.68-1.64,3.574l-17.809,15.34C181.528,486.343,180.431,486.719,179.343,486.719z"/>
	</g>
</g>
<circle fill="#42B4D6" cx="559.93" cy="70.564" r="13.558"/>
<circle fill="#FF7954" cx="20.543" cy="218.686" r="9.783"/>
<g>
	<path fill="#69DBD4" d="M218.223,125.25c0,4.004-3.246,7.25-7.25,7.25h-30.216c-4.004,0-7.25-3.246-7.25-7.25l0,0
		c0-4.004,3.246-7.25,7.25-7.25h30.216C214.977,118,218.223,121.246,218.223,125.25L218.223,125.25z"/>
	<path fill="#69DBD4" d="M195.865,147.608c-4.004,0-7.25-3.246-7.25-7.25v-30.216c0-4.004,3.246-7.25,7.25-7.25l0,0
		c4.004,0,7.25,3.246,7.25,7.25v30.216C203.115,144.362,199.869,147.608,195.865,147.608L195.865,147.608z"/>
</g>
<g>
	<path fill="#76D691" d="M768.328,168.762c0,5.465-4.43,9.895-9.895,9.895h-41.238c-5.465,0-9.895-4.43-9.895-9.895l0,0
		c0-5.465,4.43-9.895,9.895-9.895h41.238C763.898,158.867,768.328,163.297,768.328,168.762L768.328,168.762z"/>
	<path fill="#76D691" d="M737.814,199.276c-5.465,0-9.895-4.43-9.895-9.895v-41.238c0-5.465,4.43-9.895,9.895-9.895l0,0
		c5.465,0,9.895,4.43,9.895,9.895v41.238C747.709,194.846,743.279,199.276,737.814,199.276L737.814,199.276z"/>
</g>
</svg>
